<svg id="visual" viewBox="0 0 900 450" width="900" height="450" xmlns="http://www.w3.org/2000/svg" xmlns:xlink="http://www.w3.org/1999/xlink" version="1.1"><rect x="0" y="0" width="900" height="450" fill="#2c7fde"></rect><path d="M0 274L18.8 276C37.7 278 75.3 282 112.8 288.8C150.3 295.7 187.7 305.3 225.2 298.3C262.7 291.3 300.3 267.7 337.8 284.7C375.3 301.7 412.7 359.3 450.2 384.2C487.7 409 525.3 401 562.8 387.7C600.3 374.3 637.7 355.7 675.2 331C712.7 306.3 750.3 275.7 787.8 268.7C825.3 261.7 862.7 278.3 881.3 286.7L900 295L900 451L881.3 451C862.7 451 825.3 451 787.8 451C750.3 451 712.7 451 675.2 451C637.7 451 600.3 451 562.8 451C525.3 451 487.7 451 450.2 451C412.7 451 375.3 451 337.8 451C300.3 451 262.7 451 225.2 451C187.7 451 150.3 451 112.8 451C75.3 451 37.7 451 18.8 451L0 451Z" fill="#FFFFFF" stroke-linecap="round" stroke-linejoin="miter"></path></svg>