<svg id="visual" viewBox="0 0 900 450" width="900" height="450" xmlns="http://www.w3.org/2000/svg" xmlns:xlink="http://www.w3.org/1999/xlink" version="1.1"><rect x="0" y="0" width="900" height="450" fill="#030c16"></rect><path d="M0 204L18.8 206.8C37.7 209.7 75.3 215.3 112.8 225C150.3 234.7 187.7 248.3 225.2 238.3C262.7 228.3 300.3 194.7 337.8 218.5C375.3 242.3 412.7 323.7 450.2 358.7C487.7 393.7 525.3 382.3 562.8 363.7C600.3 345 637.7 319 675.2 284.5C712.7 250 750.3 207 787.8 197.2C825.3 187.3 862.7 210.7 881.3 222.3L900 234L900 451L881.3 451C862.7 451 825.3 451 787.8 451C750.3 451 712.7 451 675.2 451C637.7 451 600.3 451 562.8 451C525.3 451 487.7 451 450.2 451C412.7 451 375.3 451 337.8 451C300.3 451 262.7 451 225.2 451C187.7 451 150.3 451 112.8 451C75.3 451 37.7 451 18.8 451L0 451Z" fill="#FFFFFF" stroke-linecap="round" stroke-linejoin="miter"></path></svg>